<?xml version="1.0" encoding="UTF-8"?>
<svg id="Layer_1" data-name="Layer 1" xmlns="http://www.w3.org/2000/svg" viewBox="0 0 300.69 99.06">
  <defs>
    <style>
      .cls-1 {
        fill: #5b315f;
      }

      .cls-2 {
        fill: #b7a184;
      }
    </style>
  </defs>
  <g>
    <path class="cls-1" d="M184.47,34.62c-.15-.15-.19-.34-.19-.67,0-.69.25-1.3.52-1.3.44,0,.94,1.5,3.35,1.5,1.31,0,2.1-.83,2.1-1.73,0-2.05-4.29-1.18-4.29-4.54,0-2,2.14-3.62,4.85-3.62,2.36,0,3.2.99,3.2,1.3,0,.42-.84,1.36-1.13,1.36-.3,0-.72-.96-2.34-.96-1.25,0-1.97.67-1.97,1.51,0,2.02,4.31,1.08,4.31,4.48,0,2.17-1.99,3.9-4.96,3.9-1.87,0-3.06-.74-3.45-1.23Z"/>
    <path class="cls-1" d="M202.35,31.23c-.2.99-.37,1.97-.37,2.27,0,.74.57.79.57.99,0,.35-1.06,1.35-1.65,1.35-.47,0-.92-.4-1.3-1.03-.77.62-1.63,1.03-2.57,1.03-1.48,0-2.91-1.03-2.91-3.15,0-3.43,3.23-5.77,6.19-5.77,1.62,0,2.79.69,2.69,1.25l-.66,3.06ZM199.77,28.46c-1.6,0-3.28,1.8-3.28,4.12,0,1.31.71,1.7,1.5,1.7.84,0,1.65-.62,1.78-1.21l.84-4.01c.07-.3-.2-.61-.84-.61Z"/>
    <path class="cls-1" d="M204.15,35.31l1.4-6.65h-.57c-.12,0-.22-.07-.22-.25,0-.61.32-1.31.64-1.31h.49l.03-.17c.42-2,1.83-3.37,3.72-3.37,1.04,0,1.85.49,1.85.76s-.74,1.21-.94,1.21c-.27,0-.37-.4-.99-.4-.59,0-1.18.5-1.36,1.4l-.12.57h1.78c.12,0,.2.08.2.19,0,.39-.66,1.38-1.04,1.38h-1.28l-1.4,6.65c-.03.22-.29.37-1.21.37s-1.03-.17-.98-.37Z"/>
    <path class="cls-1" d="M209.65,32.55c0-3.48,3.03-5.62,5.54-5.62,1.85,0,2.74.88,2.74,2.02,0,2.54-3.55,3.55-5.92,3.67.13,1.16.96,1.63,2.05,1.63,1.58,0,2.26-.81,2.49-.81.13,0,.2.07.2.18,0,.24-.2.81-.54,1.31-.24.34-1.21.91-2.78.91-2.07,0-3.79-1.23-3.79-3.3ZM212.06,31.44c1.7-.1,3.67-.89,3.67-2.37,0-.44-.3-.76-.83-.76-1.01,0-2.51,1.2-2.84,3.13Z"/>
    <path class="cls-1" d="M230.72,28.73c0,1.38-1.01,4.48-1.01,5.29,0,.44.47.47.74.47.17,0,.22.05.22.17,0,.39-.88,1.19-1.7,1.19-.96,0-1.5-.55-1.5-1.41,0-1.01.98-4.01.98-5.03,0-.56-.35-.89-.94-.89-1.03,0-2.36,1.08-2.49,1.67l-1.11,5.13c-.05.22-.29.37-1.19.37s-1.04-.15-.99-.37l2.44-11.38c.03-.2.22-.37,1.16-.37.81,0,1.08.13,1.04.35l-.91,4.24c.94-.76,2.14-1.23,3.2-1.23,1.31,0,2.07.74,2.07,1.8Z"/>
    <path class="cls-1" d="M240.03,31.23c-.2.99-.37,1.97-.37,2.27,0,.74.57.79.57.99,0,.35-1.06,1.35-1.65,1.35-.47,0-.92-.4-1.3-1.03-.77.62-1.63,1.03-2.57,1.03-1.48,0-2.91-1.03-2.91-3.15,0-3.43,3.23-5.77,6.19-5.77,1.62,0,2.79.69,2.69,1.25l-.66,3.06ZM237.45,28.46c-1.6,0-3.28,1.8-3.28,4.12,0,1.31.71,1.7,1.5,1.7.84,0,1.65-.62,1.78-1.21l.84-4.01c.07-.3-.2-.61-.84-.61Z"/>
    <path class="cls-1" d="M242.65,27.85c0-.34,1.33-.93,1.8-.93.44,0,.71.52.81,1.26.99-.79,2.15-1.26,3.23-1.26,1.33,0,2.09.74,2.09,1.8,0,1.38-1.01,4.48-1.01,5.29,0,.44.45.47.74.47.17,0,.2.05.2.17,0,.39-.86,1.19-1.68,1.19-.98,0-1.5-.55-1.5-1.41,0-1.01.96-4.01.96-5.03,0-.56-.34-.89-.94-.89-1.01,0-2.36,1.08-2.47,1.67l-1.13,5.13c-.03.22-.27.37-1.16.37s-1.06-.15-1.01-.37l1.3-6.04c.03-.15.05-.29.05-.4-.02-.54-.27-.84-.27-1.01Z"/>
    <path class="cls-1" d="M258.54,27.38l.74-3.45c.05-.2.25-.37,1.18-.37.84,0,1.04.15.99.35l-1.56,7.32c-.2.99-.37,1.97-.37,2.27,0,.74.57.79.57.99,0,.35-1.06,1.35-1.65,1.35-.54,0-1.04-.55-1.3-1.03-.77.62-1.63,1.03-2.57,1.03-1.48,0-2.91-1.03-2.91-3.16,0-3.28,2.71-5.76,5.17-5.76.69,0,1.28.2,1.72.45ZM258.11,29.18c.08-.39-.3-.72-.91-.72-1.51,0-3.18,1.77-3.18,4.11,0,1.33.71,1.72,1.5,1.72.84,0,1.65-.61,1.77-1.2l.82-3.9Z"/>
    <path class="cls-1" d="M261.38,34.37c0-.39.96-1.23,1.28-1.23.29,0,.86,1.16,2.25,1.16.86,0,1.4-.47,1.4-1.11,0-1.31-3.65-.89-3.65-3.42,0-1.57,1.73-2.84,4.06-2.84,1.94,0,2.64.76,2.64,1.14,0,.34-.91,1.26-1.25,1.26-.2,0-.69-.91-1.83-.91-.71,0-1.35.44-1.35,1.08,0,1.5,3.69.82,3.69,3.25,0,1.72-1.82,3.08-3.99,3.08-2.02,0-3.25-1.08-3.25-1.46Z"/>
    <path class="cls-1" d="M269.88,34.7c0-1.03.61-1.65,1.46-1.65.76,0,1.18.37,1.18,1.13,0,1.01-.59,1.63-1.51,1.63-.72,0-1.13-.39-1.13-1.11Z"/>
    <path class="cls-1" d="M185.67,55.59c-1.01,0-1.16-.15-1.11-.37l2.22-10.49c.07-.29.24-.42.54-.42h5.96c.37,0,.61.32.61,1.63,0,.32-.15.49-.35.49-.25,0-.89-.35-2.86-.35h-1.58c-.15,0-.25.1-.29.24l-.54,2.64c-.02.13.02.25.15.25h3.25c.13,0,.22.05.22.29,0,.67-.37,1.46-.76,1.46h-3.1c-.12,0-.25.18-.29.3l-.82,3.96c-.03.22-.15.37-1.25.37Z"/>
    <path class="cls-1" d="M201.15,51.15c-.2.99-.37,1.97-.37,2.27,0,.74.57.79.57.99,0,.35-1.06,1.35-1.65,1.35-.47,0-.92-.4-1.3-1.03-.77.62-1.63,1.03-2.57,1.03-1.48,0-2.91-1.03-2.91-3.15,0-3.43,3.23-5.77,6.19-5.77,1.62,0,2.79.69,2.69,1.25l-.66,3.06ZM198.58,48.37c-1.6,0-3.28,1.8-3.28,4.12,0,1.31.71,1.7,1.5,1.7.84,0,1.65-.62,1.78-1.21l.84-4.01c.07-.3-.2-.61-.84-.61Z"/>
    <path class="cls-1" d="M203.41,52.36l1.08-4.98c.05-.22.27-.37,1.2-.37.88,0,1.06.15,1.01.35l-1.13,5.18c-.18.84-.24,1.16-.24,1.38,0,.44.46.47.74.47.17,0,.2.05.2.17,0,.39-.86,1.19-1.68,1.19-.96,0-1.5-.55-1.5-1.35,0-.49.08-.99.32-2.05ZM207.45,44.52c0,.88-.71,1.53-1.51,1.53-.66,0-1.06-.34-1.06-1.01,0-.86.72-1.55,1.53-1.55.62,0,1.04.34,1.04,1.03Z"/>
    <path class="cls-1" d="M212.14,54.26c.17,0,.22.05.22.15,0,.44-.88,1.35-1.72,1.35-1.55,0-2.42-.94-2.42-2.42,0-.52.12-1.28.57-3.37l.3-1.4h-.69c-.12,0-.2-.07-.2-.25,0-.61.34-1.31.69-1.31h.54l.39-1.73c.08-.34,1.58-.81,2.07-.81.18,0,.25.08.22.29l-.49,2.25h1.95c.13,0,.2.08.2.19,0,.39-.64,1.38-1.04,1.38h-1.45l-.39,1.85c-.27,1.21-.39,2.14-.39,2.47,0,1.3,1.04,1.36,1.63,1.36Z"/>
    <path class="cls-1" d="M222.76,48.64c0,1.38-1.01,4.48-1.01,5.29,0,.44.47.47.74.47.17,0,.22.05.22.17,0,.39-.88,1.19-1.7,1.19-.96,0-1.5-.55-1.5-1.41,0-1.01.98-4.01.98-5.03,0-.56-.35-.89-.94-.89-1.03,0-2.36,1.08-2.49,1.67l-1.11,5.13c-.05.22-.29.37-1.19.37s-1.04-.15-.99-.37l2.44-11.38c.03-.2.22-.37,1.16-.37.81,0,1.08.13,1.04.35l-.91,4.24c.94-.76,2.14-1.23,3.2-1.23,1.31,0,2.07.74,2.07,1.8Z"/>
    <path class="cls-1" d="M223.92,55.22l1.4-6.65h-.57c-.12,0-.22-.07-.22-.25,0-.61.32-1.31.64-1.31h.49l.03-.17c.42-2,1.83-3.37,3.72-3.37,1.04,0,1.85.49,1.85.76s-.74,1.21-.94,1.21c-.27,0-.37-.4-.99-.4-.59,0-1.18.5-1.36,1.4l-.12.57h1.78c.12,0,.2.08.2.19,0,.39-.66,1.38-1.04,1.38h-1.28l-1.4,6.65c-.03.22-.29.37-1.21.37s-1.03-.17-.98-.37Z"/>
    <path class="cls-1" d="M229.94,53.93c0-.49.08-.91.27-1.8l1.01-4.75c.05-.22.27-.37,1.16-.37.94,0,1.09.15,1.04.37l-1.03,4.73c-.13.67-.17.96-.17,1.21,0,.54.35.86.93.86.98,0,2.26-1.09,2.39-1.68l1.13-5.12c.05-.22.27-.37,1.14-.37.93,0,1.08.15,1.03.37l-.81,3.77c-.22.99-.42,1.97-.42,2.27,0,.74.59.79.59.99,0,.35-1.06,1.35-1.65,1.35-.52,0-1.03-.52-1.38-1.3-.99.81-2.09,1.3-3.16,1.3-1.31,0-2.07-.77-2.07-1.83Z"/>
    <path class="cls-1" d="M240.33,52.36l1.85-8.52c.05-.22.25-.37,1.18-.37.88,0,1.06.15,1.01.35l-1.92,8.77c-.19.94-.24,1.11-.24,1.33,0,.44.47.47.76.47.15,0,.2.05.2.17,0,.39-.88,1.19-1.7,1.19-.94,0-1.46-.55-1.46-1.41,0-.37.05-.76.32-1.99Z"/>
    <path class="cls-1" d="M256.97,48.64c0,1.38-1.01,4.48-1.01,5.29,0,.44.47.47.74.47.17,0,.22.05.22.17,0,.39-.88,1.19-1.7,1.19-.96,0-1.5-.55-1.5-1.41,0-1.01.98-4.01.98-5.03,0-.56-.35-.89-.94-.89-1.03,0-2.36,1.08-2.49,1.67l-1.11,5.13c-.05.22-.29.37-1.19.37s-1.04-.15-.99-.37l2.44-11.38c.03-.2.22-.37,1.16-.37.81,0,1.08.13,1.04.35l-.91,4.24c.94-.76,2.14-1.23,3.2-1.23,1.31,0,2.07.74,2.07,1.8Z"/>
    <path class="cls-1" d="M258.05,52.46c0-3.48,3.03-5.62,5.54-5.62,1.85,0,2.74.88,2.74,2.02,0,2.54-3.55,3.55-5.92,3.67.13,1.16.96,1.63,2.05,1.63,1.58,0,2.26-.81,2.49-.81.13,0,.2.07.2.18,0,.24-.2.81-.54,1.31-.24.34-1.21.91-2.78.91-2.07,0-3.79-1.23-3.79-3.3ZM260.45,51.35c1.7-.1,3.67-.89,3.67-2.37,0-.44-.3-.76-.83-.76-1.01,0-2.51,1.2-2.84,3.13Z"/>
    <path class="cls-1" d="M274.99,51.15c-.2.99-.37,1.97-.37,2.27,0,.74.57.79.57.99,0,.35-1.06,1.35-1.65,1.35-.47,0-.92-.4-1.3-1.03-.77.62-1.63,1.03-2.57,1.03-1.48,0-2.91-1.03-2.91-3.15,0-3.43,3.23-5.77,6.19-5.77,1.62,0,2.79.69,2.69,1.25l-.66,3.06ZM272.42,48.37c-1.6,0-3.28,1.8-3.28,4.12,0,1.31.71,1.7,1.5,1.7.84,0,1.65-.62,1.78-1.21l.84-4.01c.07-.3-.2-.61-.84-.61Z"/>
    <path class="cls-1" d="M279.82,50.22l-1.11,5c-.03.22-.25.37-1.16.37s-1.06-.15-1.01-.37l1.3-6.04c.03-.15.05-.29.05-.4-.02-.54-.27-.84-.27-1.01,0-.34,1.35-.93,1.82-.93s.74.57.82,1.35c.81-.89,1.52-1.35,2.32-1.35s1.41.32,1.41.61c0,.34-.98,1.6-1.35,1.6-.24,0-.4-.42-1.03-.42-.76,0-1.63.89-1.8,1.6Z"/>
    <path class="cls-1" d="M288.2,54.26c.17,0,.22.05.22.15,0,.44-.88,1.35-1.72,1.35-1.55,0-2.42-.94-2.42-2.42,0-.52.12-1.28.57-3.37l.3-1.4h-.69c-.12,0-.2-.07-.2-.25,0-.61.34-1.31.69-1.31h.54l.39-1.73c.08-.34,1.58-.81,2.07-.81.18,0,.25.08.22.29l-.49,2.25h1.95c.13,0,.2.08.2.19,0,.39-.64,1.38-1.04,1.38h-1.45l-.39,1.85c-.27,1.21-.39,2.14-.39,2.47,0,1.3,1.04,1.36,1.63,1.36Z"/>
    <path class="cls-1" d="M289.55,54.28c0-.39.96-1.23,1.28-1.23.29,0,.86,1.16,2.25,1.16.86,0,1.4-.47,1.4-1.11,0-1.31-3.65-.89-3.65-3.42,0-1.57,1.73-2.84,4.06-2.84,1.94,0,2.64.76,2.64,1.14,0,.34-.91,1.26-1.25,1.26-.2,0-.69-.91-1.83-.91-.71,0-1.35.44-1.35,1.08,0,1.5,3.69.82,3.69,3.25,0,1.72-1.82,3.08-3.99,3.08-2.02,0-3.25-1.08-3.25-1.46Z"/>
    <path class="cls-1" d="M298.05,54.61c0-1.03.61-1.65,1.46-1.65.76,0,1.18.37,1.18,1.13,0,1.01-.59,1.63-1.51,1.63-.72,0-1.13-.39-1.13-1.11Z"/>
    <path class="cls-1" d="M184.57,75.13l2.19-10.54c.03-.24.27-.37,1.3-.37,1.11,0,1.11.12,1.06.37l-.89,4.36c-.02.12.05.18.19.18h4.31c.12,0,.22-.07.24-.18l.89-4.36c.03-.24.29-.37,1.35-.37s1.06.1,1.01.37l-2.17,10.54c-.05.22-.13.37-1.2.37s-1.21-.15-1.16-.37l.81-4.04c.03-.13-.05-.2-.17-.2h-4.31c-.12,0-.2.07-.24.2l-.83,4.04c-.05.22-.15.37-1.19.37s-1.23-.15-1.18-.37Z"/>
    <path class="cls-1" d="M196.47,72.37c0-3.48,3.03-5.62,5.54-5.62,1.85,0,2.74.88,2.74,2.02,0,2.54-3.55,3.55-5.92,3.67.13,1.16.96,1.63,2.05,1.63,1.58,0,2.26-.81,2.49-.81.13,0,.2.07.2.18,0,.24-.2.81-.54,1.31-.24.34-1.21.91-2.78.91-2.07,0-3.79-1.23-3.79-3.3ZM198.88,71.26c1.7-.1,3.67-.89,3.67-2.37,0-.44-.3-.76-.83-.76-1.01,0-2.51,1.2-2.84,3.13Z"/>
    <path class="cls-1" d="M213.42,71.06c-.2.99-.37,1.97-.37,2.27,0,.74.57.79.57.99,0,.35-1.06,1.35-1.65,1.35-.47,0-.92-.4-1.3-1.03-.77.62-1.63,1.03-2.57,1.03-1.48,0-2.91-1.03-2.91-3.15,0-3.43,3.23-5.77,6.19-5.77,1.62,0,2.79.69,2.69,1.25l-.66,3.06ZM210.85,68.28c-1.6,0-3.28,1.8-3.28,4.12,0,1.31.71,1.7,1.5,1.7.84,0,1.65-.62,1.78-1.21l.84-4.01c.07-.3-.2-.61-.84-.61Z"/>
    <path class="cls-1" d="M215.67,72.27l1.85-8.52c.05-.22.25-.37,1.18-.37.88,0,1.06.15,1.01.35l-1.92,8.77c-.19.94-.24,1.11-.24,1.33,0,.44.47.47.76.47.15,0,.2.05.2.17,0,.39-.88,1.19-1.7,1.19-.94,0-1.46-.55-1.46-1.41,0-.37.05-.76.32-1.99Z"/>
    <path class="cls-1" d="M220.5,72.27l1.08-4.98c.05-.22.27-.37,1.2-.37.88,0,1.06.15,1.01.35l-1.13,5.18c-.18.84-.24,1.16-.24,1.38,0,.44.46.47.74.47.17,0,.2.05.2.17,0,.39-.86,1.19-1.68,1.19-.96,0-1.5-.55-1.5-1.35,0-.49.08-.99.32-2.05ZM224.54,64.43c0,.88-.71,1.53-1.51,1.53-.66,0-1.06-.34-1.06-1.01,0-.86.72-1.55,1.53-1.55.62,0,1.04.34,1.04,1.03Z"/>
    <path class="cls-1" d="M225.75,67.68c0-.34,1.33-.93,1.8-.93.44,0,.71.52.81,1.26.99-.79,2.15-1.26,3.23-1.26,1.33,0,2.09.74,2.09,1.8,0,1.38-1.01,4.48-1.01,5.29,0,.44.45.47.74.47.17,0,.2.05.2.17,0,.39-.86,1.19-1.68,1.19-.98,0-1.5-.55-1.5-1.41,0-1.01.96-4.01.96-5.03,0-.56-.34-.89-.94-.89-1.01,0-2.36,1.08-2.47,1.67l-1.13,5.13c-.03.22-.27.37-1.16.37s-1.06-.15-1.01-.37l1.3-6.04c.03-.15.05-.29.05-.4-.02-.54-.27-.84-.27-1.01Z"/>
    <path class="cls-1" d="M239.97,74.86c-.71.5-1.48.81-2.31.81-1.48,0-2.91-1.03-2.91-3.15,0-3.43,3.23-5.77,6.21-5.77,1.6,0,2.78.69,2.68,1.25l-1.63,7.67c-.54,2.59-2.24,3.99-4.59,3.99-1.33,0-2.58-.49-2.69-.89-.1-.3-.1-.64-.1-.88,0-.47.1-.61.27-.61.3,0,1.03.66,2.39.66,1.2,0,2.15-.72,2.69-3.08ZM240.41,68.28c-1.6,0-3.27,1.8-3.27,4.12,0,1.31.69,1.7,1.5,1.7s1.65-.62,1.77-1.2l.84-4.02c.07-.3-.18-.61-.84-.61Z"/>
    <path class="cls-1" d="M251.05,70.14l-1.11,5c-.03.22-.25.37-1.16.37s-1.06-.15-1.01-.37l1.3-6.04c.03-.15.05-.29.05-.4-.02-.54-.27-.84-.27-1.01,0-.34,1.35-.93,1.82-.93s.74.57.82,1.35c.81-.89,1.52-1.35,2.32-1.35s1.41.32,1.41.61c0,.34-.98,1.6-1.35,1.6-.24,0-.4-.42-1.03-.42-.76,0-1.63.89-1.8,1.6Z"/>
    <path class="cls-1" d="M254.65,72.37c0-3.48,3.03-5.62,5.54-5.62,1.85,0,2.74.88,2.74,2.02,0,2.54-3.55,3.55-5.92,3.67.13,1.16.96,1.63,2.05,1.63,1.58,0,2.26-.81,2.49-.81.13,0,.2.07.2.18,0,.24-.2.81-.54,1.31-.24.34-1.21.91-2.78.91-2.07,0-3.79-1.23-3.79-3.3ZM257.05,71.26c1.7-.1,3.67-.89,3.67-2.37,0-.44-.3-.76-.83-.76-1.01,0-2.51,1.2-2.84,3.13Z"/>
    <path class="cls-1" d="M263.45,75.13l1.4-6.65h-.57c-.12,0-.22-.07-.22-.25,0-.61.32-1.31.64-1.31h.49l.03-.17c.42-2,1.83-3.37,3.72-3.37,1.04,0,1.85.49,1.85.76s-.74,1.21-.94,1.21c-.27,0-.37-.4-.99-.4-.59,0-1.18.5-1.36,1.4l-.12.57h1.78c.12,0,.2.08.2.19,0,.39-.66,1.38-1.04,1.38h-1.28l-1.4,6.65c-.03.22-.29.37-1.21.37s-1.03-.17-.98-.37Z"/>
    <path class="cls-1" d="M269.47,73.84c0-.49.08-.91.27-1.8l1.01-4.75c.05-.22.27-.37,1.16-.37.94,0,1.09.15,1.04.37l-1.03,4.73c-.13.67-.17.96-.17,1.21,0,.54.35.86.93.86.98,0,2.26-1.09,2.39-1.68l1.13-5.12c.05-.22.27-.37,1.14-.37.93,0,1.08.15,1.03.37l-.81,3.77c-.22.99-.42,1.97-.42,2.27,0,.74.59.79.59.99,0,.35-1.06,1.35-1.65,1.35-.52,0-1.03-.52-1.38-1.3-.99.81-2.09,1.3-3.16,1.3-1.31,0-2.07-.77-2.07-1.83Z"/>
    <path class="cls-1" d="M284.53,74.86c-.71.5-1.48.81-2.31.81-1.48,0-2.91-1.03-2.91-3.15,0-3.43,3.23-5.77,6.21-5.77,1.6,0,2.78.69,2.68,1.25l-1.63,7.67c-.54,2.59-2.24,3.99-4.59,3.99-1.33,0-2.58-.49-2.69-.89-.1-.3-.1-.64-.1-.88,0-.47.1-.61.27-.61.3,0,1.03.66,2.39.66,1.2,0,2.15-.72,2.69-3.08ZM284.97,68.28c-1.6,0-3.27,1.8-3.27,4.12,0,1.31.69,1.7,1.5,1.7s1.65-.62,1.77-1.2l.84-4.02c.07-.3-.18-.61-.84-.61Z"/>
    <path class="cls-1" d="M289.06,72.37c0-3.48,3.03-5.62,5.54-5.62,1.85,0,2.74.88,2.74,2.02,0,2.54-3.55,3.55-5.92,3.67.13,1.16.96,1.63,2.05,1.63,1.58,0,2.26-.81,2.49-.81.13,0,.2.07.2.18,0,.24-.2.81-.54,1.31-.24.34-1.21.91-2.78.91-2.07,0-3.79-1.23-3.79-3.3ZM291.47,71.26c1.7-.1,3.67-.89,3.67-2.37,0-.44-.3-.76-.83-.76-1.01,0-2.51,1.2-2.84,3.13Z"/>
    <path class="cls-1" d="M297.9,74.53c0-1.03.61-1.65,1.46-1.65.76,0,1.18.37,1.18,1.13,0,1.01-.59,1.63-1.51,1.63-.72,0-1.13-.39-1.13-1.11Z"/>
  </g>
  <g>
    <path class="cls-1" d="M28.47,53.23c9.46,0,18.27-7.09,18.27-14.47,0-4.01-.93-6.3-6.88-12.39-3.08-3.22-4.51-5.44-4.51-8.67,0-6.81,8.53-14.54,15.47-14.54,3.8,0,5.66,2.01,5.66,4.8,0,3.87-3.22,7.81-5.59,9.39-.57.43-.79.64-.79.86,0,.57,1.07,1.22,2.44,1.22,3.58,0,6.73-4.8,6.73-9.96S55.48,0,48.6,0c-8.31,0-19.34,9.1-19.34,17.27,0,5.44,2.44,8.74,8.67,13.97,4.16,3.51,5.23,5.16,5.23,7.52,0,5.23-8.1,10.53-16.69,10.53-5.09,0-7.52-2.22-7.52-5.44,0-3.58,3.15-7.45,5.45-8.96.57-.43.79-.64.79-.86,0-.57-.93-1.22-2.08-1.22-3.73,0-6.95,4.59-6.95,9.53,0,6.23,4.37,10.89,12.32,10.89Z"/>
    <path class="cls-1" d="M106.51,27.58c.29,0,.5-.21.5-.5,0-.86-1.43-4.08-4.73-4.08-4.37,0-7.59,6.02-12.61,13.54,2.01-5.01,2.72-7.38,2.72-8.6,0-2.22-2.65-3.08-4.08-3.08-.64,0-.79.21-.79.5,0,.43.21.29.21,1.65,0,.86-.14,3.65-1.93,8.96-1.72,5.16-3.44,8.24-3.44,9.24,0,.93,1.79,2.58,2.87,2.58,1.43,0,1.5-3.3,5.3-9.6,5.3-8.74,10.32-11.25,13.4-11.25,1.58,0,2.15.64,2.58.64Z"/>
    <path class="cls-1" d="M65.32,19.92c1.36.21,3.73-2.36,4.08-4.3.29-1.29-.79-2.87-2.01-3.08-1.43-.29-3.58,2.08-4.01,4.44-.29,1.65.79,2.72,1.93,2.94Z"/>
    <path class="cls-1" d="M132.43,36.75c0,.29-.07.5-.43,1.07-2.37,3.72-8.31,10.6-13.26,10.6-2.72,0-4.52-1.86-4.52-4.44,0-.99.14-1.7.49-2.68-4.43,5.06-8.71,8.69-11.92,8.69-1.86,0-4.02-1.28-4.02-4.66,0-8.45,12.4-20.2,21.64-20.2,2.15,0,3.37.71,4.08,1.72.43.57.07,1.08-.58.79-.36-.15-.86-.29-1.43-.29-8.45,0-18.48,12.46-18.48,17.91,0,1.43.57,1.93,1.22,1.93,1.79,0,6.16-4.01,10.53-9.52,2.29-2.94,6.09-8.67,6.52-8.67.86,0,2.29,1.72,2.29,2.79,0,1.36-6.52,9.39-6.52,12.18,0,1.79.98,2.36,1.83,2.36,4.02.01,9.38-6.73,11.32-9.24.5-.65.57-.72.86-.72.14,0,.35.14.35.36Z"/>
    <path class="cls-1" d="M82.15,32.74c-.29,0-.79.14-1.58.43-1.07.43-3.01.72-5.73.72-.72,0-1.43,0-2.22-.14,4.8-10.24,10.96-19.2,14.33-21.64.29-.14.5-.36.65-.43.07.14.21.36.21.79,0,2.22-1.43,5.73-3.3,7.81-.36.36-.5.57-.5.86,0,.72,1.65,1.65,2.51,1.65,1.93,0,4.3-5.09,4.3-8.74,0-1.72-1.65-3.08-2.58-3.22-.29-.64-1.58-1.79-3.01-1.79-4.51,0-11.96,11.46-17.12,23.86-.86-.21-4.26-1-5.12-1.29-.43,1.93,0,3.3.86,3.8l3.04.72c-.03.07-.05.14-.08.21-.06.08-.13.17-.21.29-1.86,2.58-6.81,8.96-10.89,8.96-1.43,0-2.08-.79-2.08-2.44,0-3.22,1.86-7.16,7.52-14.4.86-1.07,1.22-1.36,1.22-1.79,0-.72-1.58-2.22-2.72-2.22-3.51,0-10.24,12.32-10.24,17.19,0,4.23,2.15,6.16,4.8,6.16,3.87,0,8.11-4.06,10.96-7.64-.72,1.73-1.43,3.46-2.07,5.21l-1.85,4.8c-7.66,21.53-15.52,31.04-24.97,38.68-1.59,1.29-3.41,2.51-5.56,3.73-4.57,2.98-8.5,4.32-13.63,5.17-.81.12-.9.15-1.04.4-.07.13-.05.38.14.49.25.14.47.18,1.15.15,3.9-.23,7.49-.54,14.79-4.37.33-.14.74-.42,1.13-.64,4.09-2.34,7.91-5.07,11.35-8.11,3.45-3.05,6.55-6.43,9.2-10.04,6.57-8.68,9.47-17,14.3-30.72h0c.99-2.56,1.95-5.15,2.92-7.8.06-.14.11-.28.17-.42.79.07,1.58.07,2.44.07,3.3,0,6.3-1.15,8.1-2.51.72-.57.93-.93.93-1.36,0-.29-.14-.43-.5-.43Z"/>
  </g>
  <path class="cls-2" d="M38.82,60.51c-2.43-2.63-6.15-4.07-9.74-3.57-2.59.31-4.97,1.54-6.99,3.15-2.28-3.46-6.21-6.34-10.54-6.25-8.75.16-12.87,8.36-11.18,16.24-.38-7.19,3.16-14.46,11.15-14.37,1.38.04,2.68.4,3.86,1-.02.1-.02.19,0,.29.5,2.86-.72,5.49-3.43,7.42-1.16.82-2.46,1.48-3.72,2.11-1.91.96-3.88,1.95-5.43,3.54,0,0-.04.04-.04.04-1.94,2.01-2.39,5.14-1.11,7.78,3.64,7.54,12.02,12.83,13.65,13.81l2.04,1.21c.12.07.25.11.39.11.03,0,.06,0,.1,0,.01,0,.02,0,.03,0,.79-.1,10.81-1.55,16.64-7.69,0,0,.01,0,.02-.01,4.67-4.37,6.52-10.4,6.6-10.65,1.87-5.64.96-10.8-2.31-14.14ZM6.58,76.87c-.59,1.6-.61,3.55-.14,5.41-1.37-1.59-2.56-3.3-3.41-5.06-1-2.07-.66-4.51.84-6.06,1.4-1.43,3.17-2.33,5.05-3.27,1.31-.66,2.67-1.35,3.92-2.24,2.72-1.93,3.76-4.16,4.07-6.05.16.34.29.64.36.85.36,1.11.11,1.85-.19,2.71-.13.38-.27.77-.34,1.2,0,.03,0,.06-.01.09l-.03.54c-.04,1.34.69,2.39,1.12,3.01.08.11.19.26.21.31-.09.06-.25.13-.36.16-.36.13-1.18.44-1.1,1.32.04.43.31.72.48.9.02.01.03.03.05.05-.03.02-.07.05-.12.06-.31.09-.53.37-.55.69-.02.28.13.55.37.69h-.01c-.1.07-.2.14-.28.21-.52.45-.63,1.14-.7,1.65-.02.11-.03.21-.05.3-.1.48-.31.53-.41.56-.31.08-.69-.06-1.07-.22-.25-.11-.49-.22-.72-.33-.89-.43-1.73-.83-2.83-.83-.18,0-.37.01-.56.03-1.58.2-2.9,1.4-3.61,3.32ZM17.68,85.56c-.37,2.07-.49,3.94-.58,5.25,0,.05,0,.11-.01.15l-.99-.59c-1.82-1.09-3.94-2.6-5.98-4.4-.05-.1-.12-.19-.2-.29-.13-.15-.32-.38-.57-.7-1.26-1.72-1.87-4.08-1.66-6.08l.3.02s4.31.3,7.79,3.36c.23.2.44.41.63.61.12.13.3.35.52.59.31.36.66.76.97,1.11-.03.13-.05.25-.08.38-.05.2-.08.39-.12.59ZM37.07,75.81c0,.12-.01.24-.02.36,0,0,0,0,0,.01,0,.06-.01.13-.02.19,0,.02,0,.04,0,.06-.01.13-.03.27-.04.4-.01.08-.02.17-.03.25,0,.01,0,.03,0,.04,0,0,0,0,0,.01-.02.11-.03.21-.05.31-.01.08-.03.17-.04.25-.06.32-.13.64-.22.96h0s-.02.05-.02.06c-.03.1-.05.2-.08.3-.01.04-.02.07-.03.11-.13.41-.28.82-.45,1.22-.01.02-.02.04-.03.06-.05.11-.1.22-.15.33-.1.22-.21.43-.33.65-.02.04-.04.07-.06.11,0,0,0,.01,0,.02-.08.14-.16.28-.24.41-.07.13-.15.25-.24.38,0,.02-.02.03-.03.05-.06.1-.14.21-.21.31-.11.15-.22.3-.34.45-.29.38-.6.74-.93,1.09-.02.02-.03.03-.05.05-.28.29-.56.57-.86.83-.09.08-.18.16-.27.24-.22.2-.45.39-.68.57-.1.07-.19.15-.29.22-.15.12-.3.23-.45.33-.09.06-.18.13-.27.19-.12.08-.23.16-.35.23-.76.5-1.54.95-2.33,1.36-.26.14-.54.27-.8.39-.23.11-.46.21-.68.31-.57.25-1.14.48-1.7.69-.3.12-.6.22-.9.32-1.48.51-2.85.87-3.91,1.11-.13.03-.27.06-.39.08-.23.05-.45.1-.64.13-.12.02-.23.04-.33.06.01-.13.02-.27.03-.41.08-1.26.21-3.1.57-5.11,0-.01,0-.03,0-.04.02-.1.04-.19.05-.28.01-.05.03-.11.04-.16,0-.02,0-.03,0-.04.01-.02.01-.04.02-.06.07-.29.16-.56.27-.83.02-.04.04-.08.06-.13,0,0,0,0,0,0,.04-.1.08-.19.13-.28.02-.04.04-.08.07-.13.02-.03.03-.06.05-.08.03-.06.07-.12.11-.18.02-.04.05-.08.08-.12.03-.06.07-.12.12-.17.04-.05.07-.1.12-.15.01-.01.02-.03.03-.04.02-.03.05-.06.07-.1.02-.03.04-.05.06-.07.02-.02.03-.04.05-.05.02-.02.03-.04.05-.06.01-.02.03-.03.04-.05.02-.03.04-.05.07-.07l.11-.11c.06-.06.13-.12.19-.17.03-.03.06-.05.08-.07.02-.02.04-.03.06-.05.03-.03.05-.05.08-.07.03-.03.06-.05.08-.06.07-.06.14-.11.21-.16.03-.03.06-.04.08-.06.03-.02.06-.04.09-.06.03-.02.06-.04.08-.06.03-.02.07-.04.1-.06.1-.06.2-.12.3-.17.06-.04.13-.07.2-.11.06-.04.13-.07.19-.1.04-.02.08-.04.12-.06.13-.06.26-.12.4-.17.14-.06.28-.12.42-.16.04-.02.08-.03.13-.05.07-.03.14-.05.21-.07.04-.02.08-.04.13-.05.04-.02.09-.03.13-.04.18-.06.37-.11.56-.16.3-.08.72-.16,1.2-.25,1.95-.37,4.89-.92,7.62-2.92.12-.08.23-.17.33-.25.11-.08.22-.17.32-.25.08-.07.17-.14.25-.21.09-.07.17-.15.26-.23.02-.02.03-.03.05-.04.01-.01.02-.02.03-.03.09-.08.17-.16.26-.24.79-.33,1.52-.8,2.13-1.4.01.34,0,.68-.01,1.02ZM20.69,80.73c.9-2.02,2.22-3.86,4.15-5.09.33.3.75.57,1.28.76.58.21,1,.25,1.04.26l3.62.24h.05c.17.01.34.02.51.02.05,0,.1,0,.15,0-2.15,1.25-4.38,1.66-5.93,1.96-.51.1-.95.18-1.31.28-1.4.38-2.59.91-3.56,1.58ZM37.43,70.52c0,.07-.01.14-.02.21,0,.05-.01.09-.02.14,0,.02,0,.04-.01.05-.01.07-.02.15-.04.22h0s-.01.08-.02.12c0,0,0,.01,0,.02-.03.15-.07.3-.11.46-.03.1-.06.2-.1.29-.04.1-.07.19-.12.28-.04.08-.07.16-.12.24-.05.1-.1.19-.16.29-.02.03-.04.07-.07.11,0,.02-.02.03-.03.05t0,.01s0,0-.01.01c0,0,0,.02-.01.02,0,0,0,0-.01.01,0,.01-.01.02-.02.03-.05.08-.11.15-.17.22-.06.07-.12.15-.19.22-.14.16-.3.31-.47.45-.05.05-.1.08-.15.13-.07.06-.15.11-.23.16-.03.02-.06.04-.08.06-.17.11-.34.21-.52.31-.01,0-.03.02-.04.02-.06.03-.13.06-.19.09-.02,0-.03.02-.04.02-.06.03-.12.05-.19.08-.06.03-.13.05-.2.08-.15.05-.3.11-.46.15-.13.04-.26.07-.39.11-.17.04-.34.07-.52.11-.11.02-.22.04-.33.05-.21.03-.43.05-.65.06-.06,0-.12,0-.18,0-.23,0-.47,0-.69-.01l-3.59-.23s-.26-.04-.64-.17c-.65-.23-1.03-.67-1.13-.91-.02-.04-.02-.04.02-.22.03-.15.08-.36.07-.61,0-.19-.05-.36-.08-.5.18-.05.34-.16.44-.33.2-.32.13-.73-.15-.98-.05-.04-.24-.22-.38-.34.23-.24.51-.67.34-1.3-.05-.17-.11-.31-.17-.42.02,0,.04,0,.06-.01.16-.02.34-.05.54-.12,1.26-.46,1.35-1.67,1.38-2.19,0-.07.01-.14.02-.2.04-.28.19-.57.41-.82,1.07-1.25,3.55-1.56,5.9-.8.04.02.08.04.13.05.11.03.22.07.33.11.24.09.47.2.68.33.21.12.41.27.6.42.1.08.19.16.27.25.09.08.17.17.25.27.82.94,1.28,2.2,1.27,3.52,0,.11,0,.23-.02.34ZM39.67,74.18s-.38,1.22-1.17,2.89c.17-1.37.15-2.81-.05-4.3h0c.08-.2.15-.4.22-.61.2-.68.3-1.37.3-2.04,0-2.7-1.55-5.21-4.05-6.15-.01,0-.02-.01-.02-.01-3.1-1.19-6.48-.74-8.04,1.07-.41.47-.67,1.01-.76,1.57-.02.1-.03.21-.04.33-.04.59-.12.77-.37.86-.05.02-.16.04-.27.05-.38.06-1.16.18-1.38,1.01-.14.51.06.91.17,1.14.02.03.03.06.05.1,0,0,0,0-.01.01-.09.08-.17.15-.23.23-.17.2-.51.75.02,1.48-.15.29-.18.65-.08,1.02.02.06.04.12.06.19.03.09.07.21.07.28,0,.04-.02.11-.04.22-.05.21-.12.5-.03.86-3.1,1.96-4.76,5.2-5.69,8.42-.09-.11-.18-.21-.26-.3-.22-.25-.41-.47-.53-.6-.23-.25-.48-.51-.75-.75-3.89-3.42-8.52-3.73-8.71-3.74h-.04c.24-.65.95-2.16,2.36-2.33.94-.11,1.61.21,2.54.66.24.12.5.24.76.36.6.27,1.31.51,2.08.3.78-.21,1.31-.82,1.5-1.71.03-.12.05-.25.07-.39.03-.21.1-.65.19-.73.03-.03.07-.05.11-.07.23-.15.63-.41.78-.93.08-.3.06-.61-.06-.89.29-.36.41-.81.3-1.24-.06-.23-.18-.42-.3-.57.27-.1.58-.24.82-.51.44-.47.52-1.07.24-1.67-.08-.16-.2-.33-.34-.54-.35-.5-.88-1.26-.85-2.07l.03-.47c.06-.3.16-.61.28-.94.31-.92.7-2.07.2-3.66-.1-.31-.32-.81-.58-1.35,1.08,1,1.99,2.19,2.72,3.46.04.12.11.23.2.32.4.43,1.07.46,1.51.07.04-.04.07-.07.1-.11,3.8-3.67,9.55-4.97,13.98-1.69.47.33.89.7,1.28,1.09,2.7,2.95,3.39,7.45,1.75,12.41Z"/>
  <g>
    <g>
      <path class="cls-2" d="M102.08,66.49c-.1,0-.12.02-.29.24-.46.6-1.04,1.38-1.84,1.48-.1.01-.22.01-.3.01-1.39,0-2.5-2.82-3.29-3.16,0,0,2.77-1.17,2.77-4.03,0-2.56-2.13-4.03-5.44-4.03-2.18,0-4.01.53-4.01,1.09v11.28c0,.23.28.43,1.39.43s1.39-.21,1.39-.43v-3.26c0-.17.08-.23.23-.23h.6c1.6.02,1.45,4.09,4.58,4.09.69,0,1.3-.29,1.85-.67.69-.48,1.34-1.05,1.88-1.69.17-.2.32-.42.46-.64.12-.19.15-.27.15-.36,0-.07-.07-.12-.12-.12ZM93.42,63.69c-.68,0-.96-.19-.96-.56v-3.35c0-.38.45-.6,1.43-.6,1.26,0,2.24.47,2.24,2.03,0,1.94-1.32,2.49-2.71,2.49Z"/>
      <path class="cls-2" d="M79.69,65.9c0,2.75-2,4.09-5.29,4.09-2.62,0-4.35-.47-4.35-1.04v-10.9c0-.56,1.73-1.04,4.16-1.04,2.71,0,4.86,1.07,4.86,3.2,0,1.98-1.73,2.86-1.73,2.86,0,0,2.35.55,2.35,2.82ZM73.54,62.26h.87c1.43,0,1.92-.62,1.92-1.75s-.83-1.49-2.09-1.49c-1.05,0-1.36.26-1.36.64v2.03c0,.38.19.56.66.56ZM72.88,67.19c0,.38.24.7,1.54.7,1.49,0,2.47-.53,2.47-2.03,0-1.22-1.04-1.53-2.07-1.53h-1.28c-.47,0-.66.19-.66.57v2.3Z"/>
      <path class="cls-2" d="M82.94,69.38v-11.75c0-.23.23-.43,1.39-.43s1.39.21,1.39.43v11.75c0,.23-.24.43-1.39.43s-1.39-.21-1.39-.43Z"/>
      <path class="cls-2" d="M105.07,69.38v-9.49c0-.19-.09-.28-.28-.28h-2.49c-.24,0-.43-.28-.43-1.24s.19-1.17.43-1.17h8.32c.23,0,.43.23.43,1.17s-.21,1.24-.43,1.24h-2.49c-.19,0-.28.09-.28.28v9.49c0,.23-.24.43-1.39.43s-1.39-.21-1.39-.43Z"/>
      <path class="cls-2" d="M113.87,69.38v-11.75c0-.23.23-.43,1.39-.43s1.39.21,1.39.43v4.65c0,.19.09.28.28.28h4.5c.19,0,.28-.09.28-.28v-4.65c0-.23.23-.43,1.39-.43s1.39.21,1.39.43v11.75c0,.23-.24.43-1.39.43s-1.39-.21-1.39-.43v-4.1c0-.19-.09-.28-.28-.28h-4.5c-.19,0-.28.09-.28.28v4.1c0,.23-.24.43-1.39.43s-1.39-.21-1.39-.43Z"/>
    </g>
    <g>
      <g>
        <path class="cls-2" d="M58.09,83.5c0-4.37,3.22-6.66,6.66-6.66,2.73,0,3.88,1.24,3.88,1.62s-.72,1.47-1.04,1.47c-.41,0-.87-.62-2.77-.62-2,0-3.73,1.22-3.73,4.18s1.88,3.92,4.1,3.92,3.35-1.15,3.73-1.15c.19,0,.28.09.28.3,0,.36-.11,1.07-.4,1.73-.19.49-1.92,1.54-4.03,1.54-3.41,0-6.7-1.9-6.7-6.33Z"/>
        <path class="cls-2" d="M72.31,89.11v-11.56c0-.36.17-.53.53-.53h6.7c.85,0,1.07.94,1.07,2.54,0,.19-.11.28-.24.28-.3,0-.79-.47-3.65-.47h-1.39c-.19,0-.28.09-.28.28v2.2c0,.19.09.28.28.28h3.41c.24,0,.43.24.43,1.2s-.19,1.22-.43,1.22h-3.41c-.19,0-.28.09-.28.28v2.15c0,.19.09.28.28.28h1.88c2.86,0,3.33-.47,3.63-.47.15,0,.26.09.26.28,0,1.6-.23,2.54-1.07,2.54h-7.19c-.36,0-.53-.17-.53-.53Z"/>
        <path class="cls-2" d="M84.3,89.23v-11.82c0-.21.26-.38.98-.38.9,0,1.13.06,1.26.23l5.72,7.64v-7.47c0-.23.15-.41,1.28-.41s1.32.19,1.32.41v11.84c0,.21-.26.38-.98.38-.9,0-1.15-.08-1.26-.23l-5.72-7.44v7.25c0,.23-.15.41-1.28.41s-1.32-.19-1.32-.41Z"/>
        <path class="cls-2" d="M100.91,89.21v-9.49c0-.19-.09-.28-.28-.28h-2.49c-.24,0-.43-.28-.43-1.24s.19-1.17.43-1.17h8.32c.23,0,.43.23.43,1.17s-.21,1.24-.43,1.24h-2.49c-.19,0-.28.09-.28.28v9.49c0,.23-.24.43-1.39.43s-1.39-.21-1.39-.43Z"/>
        <path class="cls-2" d="M109.73,89.11v-11.56c0-.36.17-.53.53-.53h6.7c.85,0,1.07.94,1.07,2.54,0,.19-.11.28-.24.28-.3,0-.79-.47-3.65-.47h-1.39c-.19,0-.28.09-.28.28v2.2c0,.19.09.28.28.28h3.41c.24,0,.43.24.43,1.2s-.19,1.22-.43,1.22h-3.41c-.19,0-.28.09-.28.28v2.15c0,.19.09.28.28.28h1.88c2.86,0,3.33-.47,3.63-.47.15,0,.26.09.26.28,0,1.6-.23,2.54-1.07,2.54h-7.19c-.36,0-.53-.17-.53-.53Z"/>
      </g>
      <path class="cls-2" d="M134.13,86.32c-.1,0-.12.02-.29.24-.46.6-1.04,1.38-1.84,1.48-.1.01-.22.01-.3.01-1.39,0-2.5-2.82-3.29-3.16,0,0,2.77-1.17,2.77-4.03,0-2.56-2.13-4.03-5.44-4.03-2.18,0-4.01.53-4.01,1.09v11.28c0,.23.28.43,1.39.43s1.39-.21,1.39-.43v-3.26c0-.17.08-.23.23-.23h.6c1.6.02,1.45,4.09,4.58,4.09.69,0,1.3-.29,1.85-.67.69-.48,1.34-1.05,1.88-1.69.17-.2.32-.42.46-.64.12-.19.15-.27.15-.36,0-.07-.07-.12-.12-.12ZM125.47,83.52c-.68,0-.96-.19-.96-.56v-3.35c0-.38.45-.6,1.43-.6,1.26,0,2.24.47,2.24,2.03,0,1.94-1.32,2.49-2.71,2.49Z"/>
    </g>
  </g>
  <path class="cls-1" d="M158.43,99.06h0c-.54,0-.99-.49-.99-1.09V1.09C157.45.49,157.89,0,158.43,0h0c.54,0,.99.49.99,1.09v96.89c0,.6-.44,1.09-.99,1.09Z"/>
</svg>